<svg width="109" height="18" viewBox="0 0 109 18" fill="none" xmlns="http://www.w3.org/2000/svg">
<path d="M12.464 5.288C12.464 6.136 12.264 6.936 11.864 7.688C11.464 8.44 10.824 9.056 9.944 9.536C9.064 10 7.936 10.232 6.56 10.232H3.536V17H0.8V0.319999H6.56C7.84 0.319999 8.92 0.543999 9.8 0.991999C10.696 1.424 11.36 2.016 11.792 2.768C12.24 3.52 12.464 4.36 12.464 5.288ZM6.56 8C7.6 8 8.376 7.768 8.888 7.304C9.4 6.824 9.656 6.152 9.656 5.288C9.656 3.464 8.624 2.552 6.56 2.552H3.536V8H6.56ZM19.0094 14.792H24.6494V17H16.2734V0.319999H19.0094V14.792ZM38.1935 13.592H31.2095L30.0095 17H27.1535L33.1295 0.295999H36.2975L42.2735 17H39.3935L38.1935 13.592ZM37.4255 11.36L34.7135 3.608L31.9775 11.36H37.4255ZM59.7759 17H57.0399L48.8079 4.544V17H46.0719V0.295999H48.8079L57.0399 12.728V0.295999H59.7759V17ZM75.3448 0.319999V2.552H70.9047V17H68.1687V2.552H63.7047V0.319999H75.3448ZM88.5076 17L82.0516 9.536V17H79.3156V0.319999H82.0516V7.928L88.5316 0.319999H91.9636L84.7156 8.672L92.0836 17H88.5076ZM98.4151 0.319999V10.952C98.4151 12.216 98.7431 13.168 99.3991 13.808C100.071 14.448 100.999 14.768 102.183 14.768C103.383 14.768 104.311 14.448 104.967 13.808C105.639 13.168 105.975 12.216 105.975 10.952V0.319999H108.711V10.904C108.711 12.264 108.415 13.416 107.823 14.36C107.231 15.304 106.439 16.008 105.447 16.472C104.455 16.936 103.359 17.168 102.159 17.168C100.959 17.168 99.8631 16.936 98.8711 16.472C97.8951 16.008 97.1191 15.304 96.5431 14.36C95.9671 13.416 95.6791 12.264 95.6791 10.904V0.319999H98.4151Z" fill="#156963"/>
</svg>
